<?xml version="1.0" encoding="UTF-8"?>
<svg xmlns="http://www.w3.org/2000/svg" xmlns:xlink="http://www.w3.org/1999/xlink" width="2100" height="2100" viewBox="0 0 2100 2100">

<path fill-rule="evenodd" fill="rgb(0%, 0%, 0%)" fill-opacity="1" d="M 1519.871094 714.878906 C 1702 714.878906 1851.03125 863.898438 1851.03125 1046.039062 C 1851.03125 1228.183594 1702 1377.203125 1519.871094 1377.203125 C 1337.730469 1377.203125 1188.699219 1228.183594 1188.699219 1046.039062 C 1188.699219 863.898438 1337.730469 714.878906 1519.871094 714.878906 Z M 1519.871094 755.839844 C 1679.46875 755.839844 1810.058594 886.429688 1810.058594 1046.039062 C 1810.058594 1205.652344 1679.46875 1336.242188 1519.871094 1336.242188 C 1360.261719 1336.242188 1229.671875 1205.652344 1229.671875 1046.039062 C 1229.671875 886.429688 1360.261719 755.839844 1519.871094 755.839844 "/>
<path fill-rule="evenodd" fill="rgb(0%, 0%, 0%)" fill-opacity="1" d="M 1519.871094 772.199219 C 1670.480469 772.199219 1793.710938 895.429688 1793.710938 1046.039062 C 1793.710938 1196.65625 1670.480469 1319.882812 1519.871094 1319.882812 C 1369.25 1319.882812 1246.019531 1196.65625 1246.019531 1046.039062 C 1246.019531 895.429688 1369.25 772.199219 1519.871094 772.199219 "/>
<path fill-rule="evenodd" fill="rgb(100%, 100%, 100%)" fill-opacity="1" d="M 1365.648438 1017.300781 L 1365.648438 1171.796875 L 1365.679688 1172.644531 L 1365.738281 1173.488281 L 1365.800781 1174.324219 L 1365.890625 1175.160156 L 1366.019531 1175.984375 C 1366.109375 1176.535156 1366.199219 1177.074219 1366.320312 1177.617188 C 1366.441406 1178.15625 1366.558594 1178.691406 1366.691406 1179.21875 L 1366.898438 1180.011719 C 1367.050781 1180.53125 1367.199219 1181.054688 1367.378906 1181.5625 C 1367.660156 1182.335938 1367.929688 1183.09375 1368.269531 1183.835938 L 1368.691406 1184.8125 C 1368.878906 1185.21875 1369.089844 1185.628906 1369.269531 1186.027344 L 1369.671875 1186.738281 L 1370.058594 1187.4375 L 1370.460938 1188.128906 L 1370.878906 1188.804688 L 1371.308594 1189.476562 L 1371.761719 1190.132812 L 1372.25 1190.777344 C 1372.890625 1191.628906 1373.558594 1192.449219 1374.289062 1193.234375 L 1374.839844 1193.816406 C 1375.929688 1194.972656 1377.121094 1196.046875 1378.359375 1197.03125 C 1378.789062 1197.359375 1379.21875 1197.683594 1379.640625 1197.992188 L 1380.28125 1198.445312 L 1380.949219 1198.886719 L 1381.648438 1199.3125 L 1382.320312 1199.71875 L 1383.019531 1200.109375 L 1383.75 1200.488281 L 1384.449219 1200.847656 C 1384.929688 1201.078125 1385.421875 1201.304688 1385.941406 1201.511719 L 1386.671875 1201.816406 L 1387.429688 1202.109375 L 1388.191406 1202.378906 L 1389.160156 1202.683594 C 1389.621094 1202.824219 1390.070312 1202.960938 1390.558594 1203.078125 C 1393.210938 1203.761719 1395.96875 1204.125 1398.828125 1204.125 L 1466.960938 1204.125 L 1466.960938 1131.855469 C 1466.960938 1113.578125 1481.859375 1098.671875 1500.140625 1098.671875 L 1539.558594 1098.671875 C 1557.839844 1098.671875 1572.738281 1113.578125 1572.738281 1131.855469 L 1572.738281 1204.125 L 1640.898438 1204.125 C 1643.761719 1204.128906 1646.519531 1203.765625 1649.171875 1203.078125 C 1649.628906 1202.960938 1650.078125 1202.824219 1650.539062 1202.683594 L 1651.511719 1202.378906 L 1652.269531 1202.109375 L 1653.03125 1201.816406 L 1653.789062 1201.511719 C 1654.28125 1201.304688 1654.769531 1201.078125 1655.25 1200.847656 L 1655.980469 1200.488281 L 1656.679688 1200.109375 L 1657.378906 1199.71875 L 1658.078125 1199.3125 L 1658.75 1198.886719 L 1659.421875 1198.445312 L 1660.058594 1197.992188 C 1660.511719 1197.683594 1660.941406 1197.359375 1661.371094 1197.03125 C 1662.609375 1196.042969 1663.800781 1194.972656 1664.890625 1193.816406 L 1665.441406 1193.234375 C 1666.140625 1192.445312 1666.839844 1191.628906 1667.449219 1190.777344 L 1667.941406 1190.132812 L 1668.390625 1189.476562 L 1668.820312 1188.804688 L 1669.238281 1188.128906 L 1669.671875 1187.4375 L 1670.058594 1186.738281 L 1670.429688 1186.027344 C 1670.640625 1185.628906 1670.828125 1185.21875 1671.039062 1184.8125 L 1671.460938 1183.835938 C 1671.769531 1183.09375 1672.070312 1182.335938 1672.308594 1181.5625 C 1672.5 1181.054688 1672.648438 1180.53125 1672.800781 1180.011719 L 1673.011719 1179.21875 C 1673.171875 1178.691406 1673.289062 1178.15625 1673.410156 1177.617188 C 1673.5 1177.074219 1673.589844 1176.53125 1673.679688 1175.984375 L 1673.808594 1175.160156 L 1673.988281 1173.488281 L 1674.019531 1172.644531 L 1674.050781 1171.796875 L 1674.078125 1170.941406 L 1674.078125 1017.300781 C 1674.078125 1007.128906 1670 998.390625 1662.21875 991.859375 L 1548.171875 896.28125 C 1534.941406 885.191406 1504.789062 885.191406 1491.53125 896.28125 L 1377.511719 991.859375 C 1369.730469 998.390625 1365.648438 1007.128906 1365.648438 1017.300781 "/>
<path fill-rule="evenodd" fill="rgb(0%, 0%, 0%)" fill-opacity="1" d="M 592.136719 733.550781 C 764.007812 733.550781 904.628906 874.171875 904.628906 1046.039062 C 904.628906 1217.914062 764.007812 1358.535156 592.136719 1358.535156 C 420.261719 1358.535156 279.640625 1217.914062 279.640625 1046.039062 C 279.640625 874.171875 420.261719 733.550781 592.136719 733.550781 "/>
<path fill-rule="evenodd" fill="rgb(100%, 100%, 100%)" fill-opacity="1" d="M 437.921875 1017.300781 L 437.921875 1171.796875 L 437.953125 1172.644531 L 438.011719 1173.488281 L 438.074219 1174.324219 L 438.164062 1175.160156 L 438.285156 1175.984375 C 438.378906 1176.535156 438.46875 1177.074219 438.589844 1177.617188 C 438.710938 1178.15625 438.835938 1178.691406 438.953125 1179.21875 L 439.167969 1180.011719 C 439.320312 1180.53125 439.472656 1181.054688 439.65625 1181.5625 C 439.929688 1182.335938 440.203125 1183.09375 440.535156 1183.835938 L 440.964844 1184.8125 C 441.144531 1185.21875 441.359375 1185.628906 441.539062 1186.027344 L 441.9375 1186.738281 L 442.332031 1187.4375 L 442.726562 1188.128906 L 443.152344 1188.804688 L 443.578125 1189.476562 L 444.035156 1190.132812 L 444.519531 1190.777344 C 445.160156 1191.628906 445.828125 1192.449219 446.558594 1193.234375 L 447.105469 1193.816406 C 448.199219 1194.972656 449.386719 1196.046875 450.632812 1197.03125 C 451.058594 1197.359375 451.484375 1197.683594 451.910156 1197.992188 L 452.550781 1198.445312 L 453.21875 1198.886719 L 453.917969 1199.3125 L 454.589844 1199.71875 L 455.285156 1200.109375 L 456.019531 1200.488281 L 456.71875 1200.847656 C 457.203125 1201.078125 457.691406 1201.304688 458.207031 1201.511719 L 458.9375 1201.816406 L 459.695312 1202.109375 L 460.457031 1202.378906 L 461.429688 1202.683594 C 461.886719 1202.824219 462.34375 1202.960938 462.828125 1203.078125 C 465.476562 1203.761719 468.242188 1204.125 471.101562 1204.125 L 539.230469 1204.125 L 539.230469 1131.855469 C 539.230469 1113.578125 554.132812 1098.671875 572.410156 1098.671875 L 611.828125 1098.671875 C 630.105469 1098.671875 645.011719 1113.578125 645.011719 1131.855469 L 645.011719 1204.125 L 713.167969 1204.125 C 716.027344 1204.128906 718.792969 1203.765625 721.441406 1203.078125 C 721.894531 1202.960938 722.351562 1202.824219 722.808594 1202.683594 L 723.78125 1202.378906 L 724.542969 1202.109375 L 725.300781 1201.816406 L 726.0625 1201.511719 C 726.550781 1201.304688 727.035156 1201.078125 727.523438 1200.847656 L 728.253906 1200.488281 L 728.953125 1200.109375 L 729.652344 1199.71875 L 730.351562 1199.3125 L 731.019531 1198.886719 L 731.6875 1198.445312 L 732.328125 1197.992188 C 732.785156 1197.683594 733.210938 1197.359375 733.636719 1197.03125 C 734.882812 1196.042969 736.070312 1194.972656 737.164062 1193.816406 L 737.710938 1193.234375 C 738.410156 1192.445312 739.109375 1191.628906 739.71875 1190.777344 L 740.203125 1190.132812 L 740.660156 1189.476562 L 741.085938 1188.804688 L 741.511719 1188.128906 L 741.9375 1187.4375 L 742.335938 1186.738281 L 742.699219 1186.027344 C 742.910156 1185.628906 743.09375 1185.21875 743.308594 1184.8125 L 743.734375 1183.835938 C 744.035156 1183.09375 744.339844 1182.335938 744.585938 1181.5625 C 744.769531 1181.054688 744.921875 1180.53125 745.070312 1180.011719 L 745.285156 1179.21875 C 745.4375 1178.691406 745.558594 1178.15625 745.679688 1177.617188 C 745.769531 1177.074219 745.863281 1176.53125 745.953125 1175.984375 L 746.074219 1175.160156 L 746.167969 1174.324219 L 746.257812 1173.488281 L 746.289062 1172.644531 L 746.316406 1171.796875 L 746.347656 1170.941406 L 746.347656 1017.300781 C 746.347656 1007.128906 742.273438 998.390625 734.488281 991.859375 L 620.433594 896.28125 C 607.203125 885.191406 577.0625 885.191406 563.804688 896.28125 L 449.78125 991.859375 C 441.996094 998.390625 437.921875 1007.128906 437.921875 1017.300781 "/>
</svg>
